HIERARCHY
ROOT Hips
{
	OFFSET 0.000000 0.000000 0.000000
	CHANNELS 6 Xposition Yposition Zposition Xrotation Yrotation Zrotation
	JOINT LeftUpLeg_virtual
	{
		OFFSET 0.000000 0.000000 0.000000
		CHANNELS 3 Xrotation Yrotation Zrotation
		JOINT LeftUpLeg
		{
			OFFSET 13.026900 -6.336304 -1.092800
			CHANNELS 3 Xrotation Yrotation Zrotation
			JOINT LeftLeg
			{
				OFFSET 0.524474 -46.096886 9.782700
				CHANNELS 3 Xrotation Yrotation Zrotation
				JOINT LeftFoot
				{
					OFFSET -0.524474 -53.427422 -12.948200
					CHANNELS 3 Xrotation Yrotation Zrotation
					JOINT LeftToeBase
					{
						OFFSET 0.192200 -14.009700 16.364100
						CHANNELS 3 Xrotation Yrotation Zrotation
						JOINT LeftToe_End
						{
							OFFSET -1.784700 -0.561700 9.474800
							CHANNELS 3 Xrotation Yrotation Zrotation
							End Site
							{
								OFFSET 0 0 0
							}
						}
					}
				}
			}
		}
	}
	JOINT RightUpLeg_virtual
	{
		OFFSET 0.000000 0.000000 0.000000
		CHANNELS 3 Xrotation Yrotation Zrotation
		JOINT RightUpLeg
		{
			OFFSET -12.883000 -6.336304 -1.092800
			CHANNELS 3 Xrotation Yrotation Zrotation
			JOINT RightLeg
			{
				OFFSET -0.524587 -46.096825 9.782800
				CHANNELS 3 Xrotation Yrotation Zrotation
				JOINT RightFoot
				{
					OFFSET 0.524587 -53.427383 -12.948300
					CHANNELS 3 Xrotation Yrotation Zrotation
					JOINT RightToeBase
					{
						OFFSET -0.192200 -14.009700 16.364100
						CHANNELS 3 Xrotation Yrotation Zrotation
						JOINT RightToe_End
						{
							OFFSET 1.784700 -0.561700 9.474800
							CHANNELS 3 Xrotation Yrotation Zrotation
							End Site
							{
								OFFSET 0 0 0
							}
						}
					}
				}
			}
		}
	}
	JOINT Spine_virtual
	{
		OFFSET 0.000000 0.000000 0.000000
		CHANNELS 3 Xrotation Yrotation Zrotation
		JOINT Spine
		{
			OFFSET 0.072000 7.257294 -0.789700
			CHANNELS 3 Xrotation Yrotation Zrotation
			JOINT Spine1
			{
				OFFSET 0.000000 12.508769 -0.658067
				CHANNELS 3 Xrotation Yrotation Zrotation
				JOINT Spine1_split
				{
					OFFSET 0.000000 12.508769 -0.658067
					CHANNELS 3 Xrotation Yrotation Zrotation
					JOINT Spine2
					{
						OFFSET 0.000000 12.508769 -0.658067
						CHANNELS 3 Xrotation Yrotation Zrotation
						JOINT Neck_virtual
						{
							OFFSET 0.000000 0.000000 0.000000
							CHANNELS 3 Xrotation Yrotation Zrotation
							JOINT Neck
							{
								OFFSET 0.000000 14.033295 7.520400
								CHANNELS 3 Xrotation Yrotation Zrotation
								JOINT Head
								{
									OFFSET 0.000000 8.198502 5.703100
									CHANNELS 3 Xrotation Yrotation Zrotation
									JOINT HeadTop_End
									{
										OFFSET 0.000000 17.760803 13.332701
										CHANNELS 3 Xrotation Yrotation Zrotation
										End Site
										{
											OFFSET 0 0 0
										}
									}
								}
							}
						}
						JOINT LeftShoulder_virtual
						{
							OFFSET 0.000000 0.000000 0.000000
							CHANNELS 3 Xrotation Yrotation Zrotation
							JOINT LeftShoulder
							{
								OFFSET 6.292450 5.785301 -0.669000
								CHANNELS 3 Xrotation Yrotation Zrotation
								JOINT LeftShoulder_split
								{
									OFFSET 6.292450 5.785301 -0.669000
									CHANNELS 3 Xrotation Yrotation Zrotation
									JOINT LeftArm
									{
										OFFSET 13.907140 -6.093903 1.965100
										CHANNELS 3 Xrotation Yrotation Zrotation
										JOINT LeftForeArm
										{
											OFFSET 34.140198 0.000000 0.000000
											CHANNELS 3 Xrotation Yrotation Zrotation
											JOINT LeftHand
											{
												OFFSET 40.960209 0.000000 0.000000
												CHANNELS 3 Xrotation Yrotation Zrotation
												End Site
												{
													OFFSET 0 0 0
												}
											}
										}
									}
								}
							}
						}
						JOINT RightShoulder_virtual
						{
							OFFSET 0.000000 0.000000 0.000000
							CHANNELS 3 Xrotation Yrotation Zrotation
							JOINT RightShoulder
							{
								OFFSET -6.292450 5.785301 -0.669000
								CHANNELS 3 Xrotation Yrotation Zrotation
								JOINT RightShoulder_split
								{
									OFFSET -6.292450 5.785301 -0.669000
									CHANNELS 3 Xrotation Yrotation Zrotation
									JOINT RightArm
									{
										OFFSET -13.907140 -6.093903 1.965100
										CHANNELS 3 Xrotation Yrotation Zrotation
										JOINT RightForeArm
										{
											OFFSET -34.140198 0.000000 0.000000
											CHANNELS 3 Xrotation Yrotation Zrotation
											JOINT RightHand
											{
												OFFSET -40.960209 0.000000 0.000000
												CHANNELS 3 Xrotation Yrotation Zrotation
												End Site
												{
													OFFSET 0 0 0
												}
											}
										}
									}
								}
							}
						}
					}
				}
			}
		}
	}
}
MOTION
Frames: 5
Frame Time: 0.03333333
-5.066788 102.532623 -3.053844 0.000000 0.000000 0.000000 -3.774920 -8.289120 6.003974 -62.545169 6.026825 8.282273 49.928434 2.397283 -5.111377 9.536604 -0.776786 1.060655 -2.631316 0.051256 0.662230 0.000000 0.000000 0.000000 -3.645188 -10.049625 5.589484 -21.776894 -7.840346 -7.158392 46.630456 8.784710 2.579019 -19.262747 0.918149 -6.629673 -5.689900 0.168457 0.368592 0.000000 0.000000 0.000000 -3.086634 -7.879352 4.677781 13.220018 0.278405 -4.154405 2.690311 0.222477 -0.973473 0.646049 -0.702600 0.360202 0.000000 0.000000 0.000000 2.831278 0.202569 -0.815091 1.963398 -0.382891 0.652846 23.298617 5.555371 -0.468467 0.000000 0.000000 0.000000 2.814300 0.274226 -0.801466 1.523993 1.955030 -9.125975 0.898060 -2.599759 -0.800745 14.066937 -25.675825 -53.894704 0.551848 -33.027902 0.105466 0.000000 0.000000 0.000000 2.799216 -0.101702 -1.032372 -0.038345 5.887271 18.688002 0.237164 3.678346 -1.650075 14.223141 19.859839 48.205542 1.235031 40.638563 -0.418409 0.000000 0.000000 0.000000 
-5.175435 102.539932 -4.003281 0.000000 0.000000 0.000000 -2.776521 -8.284520 6.179784 -61.301781 5.611178 7.417778 42.888213 2.692215 -4.580358 9.562943 0.797744 1.238174 -0.637837 0.213353 0.019318 0.000000 0.000000 0.000000 -3.041673 -9.339304 5.817521 -22.280917 -7.482262 -6.565567 46.652969 8.048968 2.300949 -19.545054 0.317896 -7.586285 -5.299404 0.214565 0.505398 0.000000 0.000000 0.000000 -2.371208 -7.003491 5.010269 13.536266 0.277107 -4.348814 2.876497 0.254686 -1.034929 0.850009 -0.787803 0.681454 0.000000 0.000000 0.000000 2.943287 0.221956 -0.878704 2.241203 -0.477365 0.641662 23.119857 5.467619 -0.320777 0.000000 0.000000 0.000000 2.916114 0.322646 -0.885134 1.635610 1.893514 -9.217459 1.030629 -2.626834 -0.604744 14.853360 -26.737153 -54.065039 0.291573 -32.889335 -0.219603 0.000000 0.000000 0.000000 2.908622 -0.083461 -1.141826 -0.142643 6.607173 18.855652 0.353781 3.789629 -1.390958 14.082254 19.246787 47.767625 0.961661 42.450544 -0.266588 0.000000 0.000000 0.000000 
-5.346901 102.671448 -5.034126 0.000000 0.000000 0.000000 -1.768586 -7.879841 6.035932 -60.541274 5.287830 7.243027 37.921955 2.321493 -3.878145 9.477232 1.972764 0.968624 1.122861 0.417471 -0.789259 0.000000 0.000000 0.000000 -2.194093 -8.269499 5.761887 -22.767502 -7.403559 -5.870327 46.330392 7.308157 2.132172 -19.702171 -0.102531 -8.477859 -4.903769 0.283854 0.639419 0.000000 0.000000 0.000000 -1.467088 -6.015274 5.101205 13.759469 0.198337 -4.337728 3.018667 0.225111 -1.053949 1.051094 -0.836608 0.832577 0.000000 0.000000 0.000000 3.022224 0.173123 -0.909226 2.445491 -0.545644 0.730108 22.708548 5.376333 -0.083109 0.000000 0.000000 0.000000 2.953562 0.300678 -0.944885 1.738831 1.725895 -9.210427 1.137585 -2.645345 -0.542368 15.322409 -27.561195 -54.204040 -0.024624 -32.795631 -0.628831 0.000000 0.000000 0.000000 2.963144 -0.124263 -1.202029 -0.257025 7.213764 19.102525 0.629874 3.770180 -1.291390 13.574226 18.667862 47.279375 0.711909 44.406878 -0.094781 0.000000 0.000000 0.000000 
-5.592906 103.097183 -6.027782 0.000000 0.000000 0.000000 -0.599649 -6.803814 5.752264 -59.866116 5.441844 7.332932 35.498088 1.500206 -3.202143 8.432359 2.466120 1.017337 1.661065 0.492327 -1.254378 0.000000 0.000000 0.000000 -1.174865 -7.134566 5.571610 -23.453596 -7.682523 -5.322485 45.419221 6.783228 2.065745 -19.092143 -0.218380 -8.828450 -4.708416 0.337795 0.733066 0.000000 0.000000 0.000000 -0.202901 -4.910996 5.077044 13.805850 -0.016776 -4.151775 3.103745 0.115204 -1.036846 1.132212 -1.030610 0.718163 0.000000 0.000000 0.000000 3.091424 0.038100 -0.889965 2.511875 -0.565408 0.871315 22.138303 5.308607 0.164577 0.000000 0.000000 0.000000 2.943950 0.189516 -0.963084 1.827838 1.405360 -9.081425 1.341704 -2.673024 -0.485973 15.488977 -28.239115 -54.288669 -0.261041 -32.751652 -1.007709 0.000000 0.000000 0.000000 2.987301 -0.230095 -1.189622 -0.363927 7.658337 19.453688 0.941971 3.621003 -1.312353 12.912100 18.226978 46.643963 0.583111 45.886768 0.022516 0.000000 0.000000 0.000000 
-5.936631 103.771164 -6.880901 0.000000 0.000000 0.000000 0.680636 -5.019369 5.422935 -59.164970 6.039809 7.169745 35.812864 0.551178 -2.791283 6.366153 2.206753 1.776766 1.238914 0.419814 -1.408387 0.000000 0.000000 0.000000 0.065050 -6.298033 5.379279 -24.563351 -8.257679 -5.100867 43.863632 6.535492 2.119079 -17.493626 -0.017471 -8.423076 -4.776400 0.350711 0.769187 0.000000 0.000000 0.000000 1.378364 -3.850357 4.974050 13.647737 -0.368135 -3.882356 3.122378 -0.070047 -0.983505 1.098196 -1.303286 0.418519 0.000000 0.000000 0.000000 3.169768 -0.162583 -0.810927 2.471829 -0.588151 1.006300 21.545856 5.251393 0.299003 0.000000 0.000000 0.000000 2.916369 -0.001344 -0.925281 1.903864 0.967632 -8.914694 1.617097 -2.762907 -0.445210 15.463024 -28.840962 -54.309870 -0.323018 -32.841988 -1.228872 0.000000 0.000000 0.000000 2.986544 -0.405004 -1.091072 -0.436562 7.935142 19.874537 1.215489 3.448534 -1.501223 12.341058 17.881025 46.014486 0.650577 46.466648 0.019879 0.000000 0.000000 0.000000 
